<svg xmlns="http://www.w3.org/2000/svg" version="1.1" xmlns:xlink="http://www.w3.org/1999/xlink" xmlns:svgjs="http://svgjs.com/svgjs" width="100%" height="100%"><svg width="100%" height="100%" viewBox="0 0 500 500" version="1.1" xmlns="http://www.w3.org/2000/svg" xmlns:xlink="http://www.w3.org/1999/xlink" xml:space="preserve" xmlns:serif="http://www.serif.com/" style="fill-rule:evenodd;clip-rule:evenodd;stroke-linejoin:round;stroke-miterlimit:2;">
    <g transform="matrix(1,0,0,1,-93.4478,-52.0988)">
        <path d="M574.055,160.476L557.01,187.547C543.308,182.2 530.273,176.602 517.907,170.753L517.907,307.112L169.991,307.112L169.991,172.758C156.121,178.941 143.254,183.871 131.389,187.547L112.841,160.977C167.317,144.601 212.52,119.785 248.448,86.531L272.01,109.592C247.445,130.647 217.867,149.614 183.276,166.492L507.63,166.492C466.689,146.272 437.78,129.561 420.902,116.36L294.068,116.36L294.068,86.531L435.44,86.531C479.556,120.955 525.761,145.603 574.055,160.476ZM485.572,275.78L485.572,194.816L359.991,194.816L359.991,275.78L485.572,275.78ZM464.015,221.386C450.48,243.11 431.012,258.233 405.612,266.756L382.05,248.708C410.625,237.178 430.594,222.305 441.957,204.091L464.015,221.386ZM327.656,276.532L327.656,194.816L201.825,194.816L201.825,276.532L327.656,276.532ZM302.841,250.212L278.778,266.254C265.409,245.867 247.278,231.246 224.384,222.389L246.442,204.592C269.67,211.778 288.47,226.984 302.841,250.212ZM493.343,517.667L461.509,517.667L461.509,495.608L226.39,495.608L226.39,517.667L193.553,517.667L193.553,337.943L493.343,337.943L493.343,517.667ZM461.509,402.112L461.509,368.273L225.888,368.273L225.888,402.112L461.509,402.112ZM461.509,465.78L461.509,431.439L225.888,431.439L225.888,465.78L461.509,465.78Z" style="fill-rule:nonzero;"></path>
    </g>
</svg><style>@media (prefers-color-scheme: light) { :root { filter: none; } }
@media (prefers-color-scheme: dark) { :root { filter: invert(100%); } }
</style></svg>